HIERARCHY
ROOT Hips
{
	OFFSET 0.000000 0.000000 0.000000
	CHANNELS 6 Xposition Yposition Zposition Xrotation Yrotation Zrotation
	JOINT LeftUpLeg_virtual
	{
		OFFSET 0.000000 0.000000 0.000000
		CHANNELS 3 Xrotation Yrotation Zrotation
		JOINT LeftUpLeg
		{
			OFFSET 13.026900 -6.336304 -1.092800
			CHANNELS 3 Xrotation Yrotation Zrotation
			JOINT LeftLeg
			{
				OFFSET 0.524474 -46.096886 9.782700
				CHANNELS 3 Xrotation Yrotation Zrotation
				JOINT LeftFoot
				{
					OFFSET -0.524474 -53.427422 -12.948200
					CHANNELS 3 Xrotation Yrotation Zrotation
					JOINT LeftToeBase
					{
						OFFSET 0.192200 -14.009700 16.364100
						CHANNELS 3 Xrotation Yrotation Zrotation
						JOINT LeftToe_End
						{
							OFFSET -1.784700 -0.561700 9.474800
							CHANNELS 3 Xrotation Yrotation Zrotation
							End Site
							{
								OFFSET 0 0 0
							}
						}
					}
				}
			}
		}
	}
	JOINT RightUpLeg_virtual
	{
		OFFSET 0.000000 0.000000 0.000000
		CHANNELS 3 Xrotation Yrotation Zrotation
		JOINT RightUpLeg
		{
			OFFSET -12.883000 -6.336304 -1.092800
			CHANNELS 3 Xrotation Yrotation Zrotation
			JOINT RightLeg
			{
				OFFSET -0.524587 -46.096825 9.782800
				CHANNELS 3 Xrotation Yrotation Zrotation
				JOINT RightFoot
				{
					OFFSET 0.524587 -53.427383 -12.948300
					CHANNELS 3 Xrotation Yrotation Zrotation
					JOINT RightToeBase
					{
						OFFSET -0.192200 -14.009700 16.364100
						CHANNELS 3 Xrotation Yrotation Zrotation
						JOINT RightToe_End
						{
							OFFSET 1.784700 -0.561700 9.474800
							CHANNELS 3 Xrotation Yrotation Zrotation
							End Site
							{
								OFFSET 0 0 0
							}
						}
					}
				}
			}
		}
	}
	JOINT Spine_virtual
	{
		OFFSET 0.000000 0.000000 0.000000
		CHANNELS 3 Xrotation Yrotation Zrotation
		JOINT Spine
		{
			OFFSET 0.072000 7.257294 -0.789700
			CHANNELS 3 Xrotation Yrotation Zrotation
			JOINT Spine1
			{
				OFFSET 0.000000 12.508769 -0.658067
				CHANNELS 3 Xrotation Yrotation Zrotation
				JOINT Spine1_split
				{
					OFFSET 0.000000 12.508769 -0.658067
					CHANNELS 3 Xrotation Yrotation Zrotation
					JOINT Spine2
					{
						OFFSET 0.000000 12.508769 -0.658067
						CHANNELS 3 Xrotation Yrotation Zrotation
						JOINT Neck_virtual
						{
							OFFSET 0.000000 0.000000 0.000000
							CHANNELS 3 Xrotation Yrotation Zrotation
							JOINT Neck
							{
								OFFSET 0.000000 14.033295 7.520400
								CHANNELS 3 Xrotation Yrotation Zrotation
								JOINT Head
								{
									OFFSET 0.000000 8.198502 5.703100
									CHANNELS 3 Xrotation Yrotation Zrotation
									JOINT HeadTop_End
									{
										OFFSET 0.000000 17.760803 13.332701
										CHANNELS 3 Xrotation Yrotation Zrotation
										End Site
										{
											OFFSET 0 0 0
										}
									}
								}
							}
						}
						JOINT LeftShoulder_virtual
						{
							OFFSET 0.000000 0.000000 0.000000
							CHANNELS 3 Xrotation Yrotation Zrotation
							JOINT LeftShoulder
							{
								OFFSET 6.292450 5.785301 -0.669000
								CHANNELS 3 Xrotation Yrotation Zrotation
								JOINT LeftShoulder_split
								{
									OFFSET 6.292450 5.785301 -0.669000
									CHANNELS 3 Xrotation Yrotation Zrotation
									JOINT LeftArm
									{
										OFFSET 13.907140 -6.093903 1.965100
										CHANNELS 3 Xrotation Yrotation Zrotation
										JOINT LeftForeArm
										{
											OFFSET 34.140198 0.000000 0.000000
											CHANNELS 3 Xrotation Yrotation Zrotation
											JOINT LeftHand
											{
												OFFSET 40.960209 0.000000 0.000000
												CHANNELS 3 Xrotation Yrotation Zrotation
												End Site
												{
													OFFSET 0 0 0
												}
											}
										}
									}
								}
							}
						}
						JOINT RightShoulder_virtual
						{
							OFFSET 0.000000 0.000000 0.000000
							CHANNELS 3 Xrotation Yrotation Zrotation
							JOINT RightShoulder
							{
								OFFSET -6.292450 5.785301 -0.669000
								CHANNELS 3 Xrotation Yrotation Zrotation
								JOINT RightShoulder_split
								{
									OFFSET -6.292450 5.785301 -0.669000
									CHANNELS 3 Xrotation Yrotation Zrotation
									JOINT RightArm
									{
										OFFSET -13.907140 -6.093903 1.965100
										CHANNELS 3 Xrotation Yrotation Zrotation
										JOINT RightForeArm
										{
											OFFSET -34.140198 0.000000 0.000000
											CHANNELS 3 Xrotation Yrotation Zrotation
											JOINT RightHand
											{
												OFFSET -40.960209 0.000000 0.000000
												CHANNELS 3 Xrotation Yrotation Zrotation
												End Site
												{
													OFFSET 0 0 0
												}
											}
										}
									}
								}
							}
						}
					}
				}
			}
		}
	}
}
MOTION
Frames: 8
Frame Time: 0.03333333
14.625850 79.370735 -4.461273 0.000000 0.000000 0.000000 25.522989 -9.987538 0.245034 -99.675601 5.050105 5.899742 59.922677 15.907092 -3.236750 20.461811 15.250317 8.992066 -3.168091 -0.581053 4.870300 0.000000 0.000000 0.000000 25.232691 -9.151346 -0.808028 3.277671 -31.851559 -1.018210 50.459703 16.345770 -3.367669 -21.548338 -28.591223 12.385813 -26.603247 7.667798 2.582120 0.000000 0.000000 0.000000 23.293119 -1.771683 -3.242267 9.947949 2.246624 -8.950599 0.990176 5.077826 -0.661494 -0.085230 0.021892 0.276952 0.000000 0.000000 0.000000 1.701188 7.298721 -1.030993 3.789946 1.252797 12.179195 -44.561961 -28.604101 13.723741 0.000000 0.000000 0.000000 1.847195 5.475947 -1.173739 1.325684 0.924819 -17.431152 -2.218425 1.323317 2.556907 -1.767383 33.583176 -34.437114 6.206781 -28.127537 -2.393770 0.000000 0.000000 0.000000 3.674092 6.148834 -1.382327 -3.546018 6.215488 -10.078196 13.224491 3.939708 9.401248 -24.261935 50.208273 -6.835965 -123.739395 60.976514 114.685870 0.000000 0.000000 0.000000 
13.433278 79.430176 -1.985798 0.000000 0.000000 0.000000 26.678842 -9.266987 -0.072678 -99.420944 5.221242 7.066011 61.115194 14.949167 -2.966340 20.000833 14.739564 8.875532 -3.335737 -0.645356 4.917419 0.000000 0.000000 0.000000 26.304891 -8.273971 -1.409383 0.905358 -31.314662 -2.341443 51.438035 16.581215 -3.489784 -20.711640 -28.328360 10.564419 -23.395995 7.553075 2.900081 0.000000 0.000000 0.000000 25.353158 -0.942743 -3.166072 10.560705 2.153219 -9.165991 1.184569 4.923042 -0.741817 0.162572 -0.105310 0.284461 0.000000 0.000000 0.000000 1.796640 7.163543 -1.126634 3.775115 1.906932 11.593697 -43.196493 -28.561450 13.860637 0.000000 0.000000 0.000000 1.954814 5.305212 -1.187938 1.252168 -0.337135 -17.474969 -2.490681 0.193560 2.214247 -4.046625 32.203720 -34.149809 6.225635 -29.078523 -2.288319 0.000000 0.000000 0.000000 3.610345 5.950047 -1.396929 -3.272232 6.645856 -10.046635 13.963536 3.757230 9.283130 -24.109125 49.124264 -6.984969 -123.810948 60.952178 114.873605 0.000000 0.000000 0.000000 
11.646004 79.569519 0.759766 0.000000 0.000000 0.000000 28.325611 -7.852831 -0.770227 -99.423977 4.903587 8.588843 63.183239 13.241055 -2.779047 18.477678 13.759295 8.955555 -3.761847 -0.758614 4.930483 0.000000 0.000000 0.000000 28.096190 -6.965606 -2.079231 -5.865675 -31.142241 -6.308361 53.989517 17.454998 -4.037281 -15.533787 -27.924119 12.130926 -24.020184 7.383096 2.861843 0.000000 0.000000 0.000000 28.147488 -0.080100 -3.245935 11.895957 1.853999 -9.006054 1.204515 4.674210 -0.938822 0.345067 -0.152533 0.183399 0.000000 0.000000 0.000000 1.731192 6.926526 -1.372356 3.247164 2.822292 10.787380 -41.262296 -27.046680 14.282153 0.000000 0.000000 0.000000 1.875858 5.006561 -1.302970 1.100246 -2.368882 -17.534626 -2.663463 0.086884 1.301026 -7.916772 30.247455 -32.851752 5.873156 -31.067477 -2.186744 0.000000 0.000000 0.000000 3.355905 5.596660 -1.561292 -3.066485 6.971703 -9.767420 14.081010 3.994487 9.239493 -22.277415 46.865292 -7.385089 -125.579435 61.187225 116.811029 0.000000 0.000000 0.000000 
9.667335 79.599930 3.609745 0.000000 0.000000 0.000000 30.267727 -6.038332 -1.641544 -99.579841 4.081489 10.030186 65.488933 10.928474 -2.588920 15.875562 12.528140 9.086514 -4.103804 -0.881014 4.894509 0.000000 0.000000 0.000000 30.446914 -5.209734 -2.744257 -15.559796 -30.759088 -12.027184 57.215487 18.446442 -4.862848 -8.384576 -27.414658 16.175181 -27.694609 7.192380 2.388899 0.000000 0.000000 0.000000 31.130076 0.946957 -3.500328 13.614953 1.464365 -8.575836 1.016306 4.333124 -1.233421 0.354111 -0.166804 0.065429 0.000000 0.000000 0.000000 1.559066 6.594140 -1.719718 2.372518 3.927080 9.825703 -39.183214 -24.173115 14.819111 0.000000 0.000000 0.000000 1.631677 4.612203 -1.495703 0.894727 -4.781996 -17.705877 -3.048559 0.683837 -0.015658 -12.136660 28.064390 -30.991222 5.182557 -33.859584 -2.136515 0.000000 0.000000 0.000000 2.945691 5.115317 -1.856343 -2.895270 7.217872 -9.375021 13.656660 4.510195 9.323897 -19.320449 44.108248 -7.660312 -128.879249 61.549922 120.345857 0.000000 0.000000 0.000000 
7.631787 79.472610 6.903358 0.000000 0.000000 0.000000 32.417703 -3.853572 -2.608873 -99.556188 2.797646 10.919734 67.475541 8.283354 -2.273447 12.611242 11.373105 8.855652 -4.104369 -0.967131 4.810744 0.000000 0.000000 0.000000 32.853172 -3.343451 -3.326631 -26.149130 -29.846851 -18.008245 60.064479 18.730667 -5.656869 -2.156996 -27.615934 20.377786 -31.085441 7.045815 1.544715 0.000000 0.000000 0.000000 34.029304 2.074715 -3.938123 15.441598 1.003670 -8.039713 0.682276 3.889191 -1.609246 0.324354 -0.192762 -0.003618 0.000000 0.000000 0.000000 1.350178 6.152810 -2.102730 1.333155 5.151273 8.846737 -37.463311 -20.142267 15.203743 0.000000 0.000000 0.000000 1.308772 4.143854 -1.752557 0.632741 -7.253349 -18.136642 -3.674253 1.152337 -1.349964 -15.692833 25.854930 -28.918242 4.306156 -37.335989 -2.105230 0.000000 0.000000 0.000000 2.494470 4.546610 -2.230296 -2.736249 7.450726 -8.944429 12.871357 4.966867 9.718102 -15.833000 41.431473 -7.719046 -133.355141 61.839337 125.129899 0.000000 0.000000 0.000000 
5.416888 79.210289 10.542683 0.000000 0.000000 0.000000 34.783288 -1.260096 -3.572113 -99.255524 1.239240 11.069826 68.824271 5.858555 -1.926255 8.909420 10.773148 8.390814 -3.567029 -1.001588 4.681264 0.000000 0.000000 0.000000 35.164727 -1.349585 -3.746157 -35.664919 -28.537932 -23.034822 61.922235 18.034332 -6.130099 1.308165 -29.381541 23.324118 -31.356374 6.893272 0.635968 0.000000 0.000000 0.000000 36.919905 3.456831 -4.558900 17.024301 0.576602 -7.554865 0.298243 3.337620 -2.028048 0.273075 -0.151144 0.000065 0.000000 0.000000 0.000000 1.149926 5.591182 -2.470277 0.244186 6.407277 7.973386 -36.380067 -15.263840 15.344594 0.000000 0.000000 0.000000 0.963877 3.623250 -2.063721 0.291962 -9.544789 -18.906457 -4.222444 1.326545 -2.157506 -18.011489 23.788383 -26.933955 3.367157 -41.200329 -2.072718 0.000000 0.000000 0.000000 2.123452 3.935660 -2.627488 -2.554921 7.745837 -8.585958 11.901855 5.412802 10.291138 -12.510891 39.060038 -7.575758 -138.288491 61.969514 130.455766 0.000000 0.000000 0.000000 
3.001388 78.823944 14.671810 0.000000 0.000000 0.000000 37.294530 1.604847 -4.516325 -98.612618 -0.339864 10.657867 69.486096 4.082849 -1.722353 4.789544 10.981138 7.968284 -2.428616 -1.011733 4.477138 0.000000 0.000000 0.000000 37.379057 0.688754 -4.071162 -43.536234 -27.189600 -26.728690 62.797941 16.578379 -6.275769 2.036980 -32.556240 24.403719 -28.053535 6.691049 0.020736 0.000000 0.000000 0.000000 39.854857 5.292726 -5.389330 18.204198 0.215028 -7.311897 0.022329 2.688720 -2.476590 0.275325 -0.146434 0.110071 0.000000 0.000000 0.000000 1.063749 4.933149 -2.778668 -0.941795 7.658813 7.308890 -36.097458 -9.950666 15.223390 0.000000 0.000000 0.000000 0.703242 3.049791 -2.416166 -0.165736 -11.662846 -19.929345 -4.559399 1.013613 -2.345267 -19.590437 21.869438 -25.067016 2.469155 -44.732125 -2.013955 0.000000 0.000000 0.000000 1.909139 3.297904 -2.983622 -2.349705 8.058312 -8.255148 10.920904 6.011378 10.990850 -9.785230 37.047284 -7.122163 -143.029052 61.961045 135.712102 0.000000 0.000000 0.000000 
0.465420 78.482407 18.951393 0.000000 0.000000 0.000000 39.796531 4.307956 -5.353910 -97.756249 -1.769275 9.941029 69.653402 3.014123 -1.651028 0.630140 11.875698 7.408273 -0.649410 -1.006363 4.078968 0.000000 0.000000 0.000000 39.575574 2.585461 -4.372238 -49.880339 -25.963742 -29.169812 62.389017 14.808207 -6.327300 1.101141 -36.204364 24.084000 -22.622667 6.490252 -0.244015 0.000000 0.000000 0.000000 42.865089 7.196182 -6.276485 19.038005 -0.071276 -7.327377 -0.029060 1.993528 -2.908855 0.303349 -0.245698 0.204329 0.000000 0.000000 0.000000 1.164128 4.229292 -3.030821 -2.199518 8.849585 6.932760 -36.737812 -4.309860 14.866839 0.000000 0.000000 0.000000 0.600606 2.444111 -2.774554 -0.706422 -13.564915 -21.028016 -4.662685 0.512050 -1.846452 -21.186612 19.875741 -23.279629 1.613668 -47.222535 -1.949666 0.000000 0.000000 0.000000 1.899580 2.655644 -3.274334 -2.115062 8.383658 -7.939352 9.918587 6.463247 11.829579 -7.696836 35.397623 -6.453643 -146.982597 61.973694 140.313491 0.000000 0.000000 0.000000 
